<svg xmlns="http://www.w3.org/2000/svg" fill="none" viewBox="0 0 92 32">
  <path fill="#1A1A1F" d="M30.784 9.65586L24.608 26.9999H18.72l-3.264-9.44-3.392 9.44H6.176L0 9.65586h5.76L9.312 20.1519l3.68-10.49604h5.184L21.76 20.2479l3.68-10.59204h5.344z"/>
  <path fill="#1A1A1F" d="M49.901 18.3599c0 .0426-.032.544-.096 1.504H37.197c.256.896.7467 1.5893 1.472 2.08.7467.4693 1.6747.704 2.784.704.832 0 1.5467-.1174 2.144-.352.6187-.2347 1.2373-.6187 1.856-1.152l3.2 3.328c-1.6853 1.8773-4.1493 2.816-7.392 2.816-2.0267 0-3.808-.384-5.344-1.152-1.536-.768-2.7307-1.8347-3.584-3.2-.832-1.3654-1.248-2.912-1.248-4.64 0-1.7067.4053-3.232 1.216-4.576.832-1.3654 1.9733-2.432 3.424-3.2 1.4507-.76804 3.0827-1.15204 4.896-1.15204 1.728 0 3.296.36267 4.704 1.08804 1.408.704 2.5173 1.7386 3.328 3.104.832 1.344 1.248 2.944 1.248 4.8zm-9.248-4.672c-.9387 0-1.728.2666-2.368.8-.6187.5333-1.0133 1.2586-1.184 2.176h7.104c-.1707-.9174-.576-1.6427-1.216-2.176-.6187-.5334-1.3973-.8-2.336-.8z"/>
  <path fill="#1A1A1F" d="M58.4963 11.7359c.6186-.7894 1.4186-1.376 2.4-1.76004 1.0026-.40533 2.144-.608 3.424-.608v5.47204c-.5547-.064-1.0134-.096-1.376-.096-1.3014 0-2.3254.352-3.072 1.056-.7254.704-1.088 1.7813-1.088 3.232v7.968h-6.08V9.65586h5.792v2.08004z"/>
  <path fill="#1A1A1F" d="M74.7012 20.9199l-1.792 1.824v4.256h-6.0799V3.25586h6.0799V15.7039l6.208-6.04804h7.2001l-7.2001 7.42404 7.8081 9.92h-7.36l-4.8641-6.08z"/>
</svg>
